:SAMPLES-PER-SECOND 30
:FULLY-SPECIFIED
:DEGREES
115
root  -2.04289 37.7948 26.2891 168.557 -71.2543 -170.901
RightUpLeg  -21.1684 -10.018 4.56992
RightLeg  31.3069 0.520092 0.0837541
RightFoot  -7.14751 0.126196 -4.76821
RightToes  -1.33073e-015 0 -3.6325e-017
Spine  15.2258 -4.01234 9.25843
Spine1  7.84607 -2.92418 3.00568
HEad  -21.5717 7.56417 -6.01279
LeftShoulder1  -0.00568508 3.51886 -30.6593
LeftArm  3.74765 -2.26582 -46.6747
LeftForeArm  26.0144 -15.2486 -7.01061
LeftHand  -0.04148 2.70671 1.05615
RightShoulder  -0.367517 -4.64558 25.1877
RightArm  11.8883 -9.05144 47.9938
RightForeArm  6.36808 17.6089 4.67004
RightHand  -0.468538 4.69418 -5.71987
LeftUpLeg  0.0199948 -2.14525 11.625
LeftLeg  55.0108 0.423082 1.13972
LeftFoot  5.38498 0.744474 -5.27119
LeftToes  -1.03319e-009 7.52634e-011 -3.26162e-012
116
root  -3.13617 38.0992 25.5577 169.091 -70.7047 -171.89
RightUpLeg  -17.7826 -9.75727 4.51558
RightLeg  30.0791 0.680289 0.170401
RightFoot  -8.67582 0.0559311 -4.91074
RightToes  -1.33073e-015 0 -3.6325e-017
Spine  14.9647 -3.70136 10.2707
Spine1  7.97589 -2.11297 1.74569
HEad  -21.2261 7.7514 -5.74777
LeftShoulder1  0.0641739 3.32796 -30.5177
LeftArm  3.86104 -0.702443 -46.4579
LeftForeArm  26.5864 -14.9851 -7.19073
LeftHand  -0.0199019 3.43766 -0.0110832
RightShoulder  -0.402995 -4.76368 25.0376
RightArm  13.0878 -7.15465 48.1828
RightForeArm  6.32556 23.8256 4.736
RightHand  -0.401661 5.15619 -4.73045
LeftUpLeg  -4.38005 -3.17411 10.1327
LeftLeg  58.993 -2.64449 -4.14209
LeftFoot  3.1514 0.791267 -6.37479
LeftToes  -1.03319e-009 7.52634e-011 -3.26162e-012
117
root  -4.23199 38.385 24.8651 170.356 -70.1468 -173.192
RightUpLeg  -14.8029 -9.44538 4.31291
RightLeg  28.5846 0.860422 0.253993
RightFoot  -10.0131 -0.0106559 -4.89785
RightToes  -1.33073e-015 0 -3.6325e-017
Spine  14.5923 -3.39033 11.1138
Spine1  7.42408 -1.40848 0.555525
HEad  -20.1412 7.58722 -5.96313
LeftShoulder1  -0.06102 3.66921 -30.8389
LeftArm  3.94409 0.577602 -45.6063
LeftForeArm  26.6087 -14.5713 -7.45295
LeftHand  -0.0391581 2.4495 1.06997
RightShoulder  -0.429472 -4.8447 25.1235
RightArm  11.5173 -5.59065 47.9828
RightForeArm  9.3932 30.1436 6.05044
RightHand  -0.432146 4.13665 -5.51973
LeftUpLeg  -9.03414 -3.94568 8.26193
LeftLeg  60.5259 -2.9473 -5.06626
LeftFoot  1.27253 0.74753 -6.80708
LeftToes  -1.03319e-009 7.52634e-011 -3.26162e-012
118
root  -5.37597 38.7089 24.1395 172.471 -69.7756 -175.46
RightUpLeg  -11.2959 -9.27566 3.63109
RightLeg  26.3073 0.999978 0.359844
RightFoot  -11.0574 -0.0627148 -4.91467
RightToes  -1.33073e-015 0 -3.6325e-017
Spine  14.0686 -2.81537 11.3103
Spine1  6.94296 -0.696985 -0.535479
HEad  -19.5396 7.0945 -6.08768
LeftShoulder1  -0.0608537 3.66876 -30.6918
LeftArm  3.29505 2.61994 -45.524
LeftForeArm  26.2266 -15.1563 -6.99832
LeftHand  -0.0229168 3.33878 0.267804
RightShoulder  -0.481875 -5.02133 24.8907
RightArm  10.4468 -4.3086 48.0644
RightForeArm  8.86938 35.4849 7.48703
RightHand  -0.51188 4.49215 -6.29368
LeftUpLeg  -12.9372 -4.38474 6.17159
LeftLeg  58.9631 -2.35987 -3.71771
LeftFoot  -0.29487 0.531001 -5.46092
LeftToes  -1.03319e-009 7.52634e-011 -3.26162e-012
119
root  -6.4937 38.9476 23.4156 174.116 -69.4271 -177.382
RightUpLeg  -7.76259 -9.26546 2.88364
RightLeg  24.1905 1.22828 0.734067
RightFoot  -12.0819 -0.114987 -5.16536
RightToes  -1.33073e-015 0 -3.6325e-017
Spine  13.7696 -2.24938 11.299
Spine1  6.356 -0.0995406 -1.35569
HEad  -19.534 6.84811 -6.71098
LeftShoulder1  -0.0849504 3.7317 -31.0008
LeftArm  3.88352 3.93635 -44.5628
LeftForeArm  24.7908 -15.4158 -6.9573
LeftHand  -0.0186822 4.40618 -0.635639
RightShoulder  -0.421708 -4.85076 24.3864
RightArm  9.04208 -3.35074 48.4142
RightForeArm  10.027 40.2118 8.83251
RightHand  -0.477622 4.7272 -5.77092
LeftUpLeg  -16.1511 -4.49903 4.31462
LeftLeg  55.0556 -1.13323 -1.29403
LeftFoot  -1.9727 0.364953 -4.32488
LeftToes  -1.03319e-009 7.52634e-011 -3.26162e-012
120
root  -7.60478 39.1665 22.7074 175.607 -68.9103 -179.152
RightUpLeg  -4.1086 -8.88877 2.21097
RightLeg  21.6755 1.2043 0.953998
RightFoot  -12.7533 -0.15206 -5.36165
RightToes  -1.33073e-015 0 -3.6325e-017
Spine  13.48 -1.69076 11.7222
Spine1  6.15772 0.710838 -3.19122
HEad  -19.3139 6.35798 -6.63376
LeftShoulder1  0.00757296 3.48331 -30.4199
LeftArm  2.5521 5.36505 -44.6157
LeftForeArm  25.0513 -15.5915 -6.6398
LeftHand  -0.0214287 3.99427 -0.897072
RightShoulder  -0.474056 -5.0047 24.7308
RightArm  8.14506 -1.79979 48.3962
RightForeArm  10.7499 43.8378 10.0296
RightHand  -0.483641 5.03384 -5.69047
LeftUpLeg  -18.2723 -4.35826 2.52259
LeftLeg  48.3601 -0.151375 0.263935
LeftFoot  -3.16676 0.305473 -4.01046
LeftToes  -1.03319e-009 7.52634e-011 -3.26162e-012
121
root  -8.69162 39.2702 22.0013 176.055 -68.4684 -179.531
RightUpLeg  -0.951235 -8.27882 2.18112
RightLeg  19.462 1.05636 1.03573
RightFoot  -13.5712 -0.195622 -5.32694
RightToes  -1.33073e-015 0 -3.6325e-017
Spine  13.0216 -1.07631 11.8342
Spine1  6.03341 1.24469 -3.78306
HEad  -19.532 5.66355 -6.36781
LeftShoulder1  -0.0468728 3.6311 -30.7843
LeftArm  1.86236 5.89786 -43.9064
LeftForeArm  23.6677 -15.1659 -6.79417
LeftHand  -0.0411767 1.80639 1.11844
RightShoulder  -0.42218 -4.86449 24.118
RightArm  7.50959 -0.381413 48.9569
RightForeArm  10.8786 46.4352 11.0203
RightHand  -0.584472 4.2996 -7.26584
LeftUpLeg  -19.8025 -3.53046 1.33609
LeftLeg  39.5246 -0.368198 0.0517824
LeftFoot  -3.23422 0.268597 -3.51942
LeftToes  -1.03319e-009 7.52634e-011 -3.26162e-012
122
root  -9.79597 39.3177 21.3249 176.17 -68.187 -179.757
RightUpLeg  2.49875 -8.03768 2.08654
RightLeg  17.1271 1.06594 1.17198
RightFoot  -14.4191 -0.235843 -5.18388
RightToes  -1.33073e-015 0 -3.6325e-017
Spine  12.9179 -0.698884 11.9654
Spine1  5.91661 1.63731 -4.57746
HEad  -19.8574 5.64759 -6.90104
LeftShoulder1  -0.0516384 3.64187 -31.2013
LeftArm  2.16266 6.74676 -43.1068
LeftForeArm  23.0308 -15.6196 -6.58958
LeftHand  -0.0236445 3.26142 0.376764
RightShoulder  -0.378892 -4.73227 23.8487
RightArm  7.59778 1.23839 49.1765
RightForeArm  11.6719 47.7856 11.5233
RightHand  -0.579497 4.21959 -7.27321
LeftUpLeg  -19.9941 -2.03711 -0.0576524
LeftLeg  28.6014 -1.47661 -0.468156
LeftFoot  -2.83465 0.295564 -3.74931
LeftToes  -1.03319e-009 7.52634e-011 -3.26162e-012
123
root  -10.8998 39.281 20.617 175.791 -67.9442 -179.575
RightUpLeg  6.17121 -7.64144 2.27853
RightLeg  14.6025 0.815242 1.13163
RightFoot  -15.418 -0.273982 -4.74779
RightToes  -1.33073e-015 0 -3.6325e-017
Spine  12.7233 -0.304519 11.6396
Spine1  6.22362 1.97903 -4.94596
HEad  -19.8822 5.42426 -6.68844
LeftShoulder1  -0.0979486 3.7645 -31.282
LeftArm  1.70413 7.08471 -42.7375
LeftForeArm  23.9293 -15.1836 -6.73799
LeftHand  -0.0383952 2.13858 0.970061
RightShoulder  -0.323809 -4.56581 23.411
RightArm  7.92121 2.86279 49.7499
RightForeArm  11.6789 47.4074 11.3652
RightHand  -0.56577 4.72858 -6.77069
LeftUpLeg  -19.1816 0.292475 -1.4693
LeftLeg  16.7145 -2.77845 -0.744151
LeftFoot  -2.87875 0.402934 -5.20751
LeftToes  -1.03319e-009 7.52634e-011 -3.26162e-012
124
root  -12.0432 39.1955 19.8901 175.355 -68.0359 -179.34
RightUpLeg  9.8992 -7.46354 2.48461
RightLeg  12.131 0.434556 1.17594
RightFoot  -16.0658 -0.315101 -5.00643
RightToes  -1.33073e-015 0 -3.6325e-017
Spine  12.094 0.0420664 11.1925
Spine1  7.05171 2.35929 -5.46166
HEad  -19.8192 4.99021 -6.41413
LeftShoulder1  0.0105233 3.47571 -30.4549
LeftArm  0.886638 7.93219 -43.2215
LeftForeArm  24.6153 -14.7141 -6.87198
LeftHand  -0.0636704 2.41218 1.98297
RightShoulder  -0.335097 -4.59487 23.6508
RightArm  8.57623 4.14033 50.0477
RightForeArm  11.8831 45.9786 10.7701
RightHand  -0.557674 4.73425 -6.69126
LeftUpLeg  -17.8994 1.34327 -2.64518
LeftLeg  5.42334 0.293271 -0.706998
LeftFoot  -2.42848 0.510413 -6.35416
LeftToes  -1.03319e-009 7.52634e-011 -3.26162e-012
125
root  -13.2561 38.9721 19.1706 174.066 -68.6626 -178.408
RightUpLeg  13.5266 -7.5533 2.75551
RightLeg  10.6409 0.0119279 1.43127
RightFoot  -17.407 -0.351639 -4.42925
RightToes  -1.33073e-015 0 -3.6325e-017
Spine  11.3968 0.0467275 10.8313
Spine1  8.0065 2.41753 -5.84325
HEad  -19.2705 5.44621 -5.25226
LeftShoulder1  0.0301526 3.42101 -30.394
LeftArm  1.01958 8.2485 -42.5889
LeftForeArm  23.8869 -14.5102 -6.99746
LeftHand  -0.0343286 2.75034 0.914782
RightShoulder  -0.324202 -4.55576 23.7272
RightArm  9.61877 4.88163 50.5841
RightForeArm  11.0581 43.1584 9.76961
RightHand  -0.533911 5.51953 -5.98332
LeftUpLeg  -16.9515 0.724009 -3.09224
LeftLeg  -1.70211 8.09269 -2.06422
LeftFoot  -1.85909 0.586183 -6.93706
LeftToes  -1.03319e-009 7.52634e-011 -3.26162e-012
126
root  -14.5508 38.6394 18.4289 172.588 -69.4194 -177.373
RightUpLeg  16.4953 -7.98812 2.97538
RightLeg  11.0527 0.0505315 1.63678
RightFoot  -19.1178 -0.346399 -3.20551
RightToes  -1.33073e-015 0 -3.6325e-017
Spine  10.9052 0.154974 10.1839
Spine1  8.65271 2.41795 -5.55508
HEad  -18.6313 5.1311 -4.72004
LeftShoulder1  0.0753983 3.29602 -30.3426
LeftArm  0.270859 8.55832 -42.3615
LeftForeArm  25.0853 -14.1583 -7.03465
LeftHand  -0.030045 2.56074 0.722018
RightShoulder  -0.297131 -4.47336 23.4994
RightArm  10.451 4.72008 51.5077
RightForeArm  10.0151 39.2996 8.54639
RightHand  -0.546089 5.21843 -6.27199
LeftUpLeg  -16.7871 0.484417 -4.06285
LeftLeg  -2.76682 14.3277 -2.72998
LeftFoot  -2.35955 0.548242 -6.73935
LeftToes  -1.03319e-009 7.52634e-011 -3.26162e-012
